# xmcd CD database file
#
# Track frame offsets:
#	150
#	3650
#	22082
#	40409
#	61357
#	78628
#	98655
#	117070
#	140794
#	161378
#	181838
#	200176
#
# Disc length: 2958 seconds
#
# Revision: 0
# Processed by: cddbd v1.5.2PL0 Copyright (c) Steve Scherf et al.
# Submitted via: CDex 1.51
#
DISCID=a40b8c0c
DTITLE=Aeone - Window To A World (re-release)
DYEAR=2006
DGENRE=New Age
TTITLE0=Window To A World
TTITLE1=Then We Dance
TTITLE2=Angleterre
TTITLE3=Ophelia
TTITLE4=Colour My Eyes
TTITLE5=The Face Of Africa
TTITLE6=Savannah
TTITLE7=Hands Of Love
TTITLE8=Portrait Of A Dream
TTITLE9=Bohemian Eyes
TTITLE10=Love Is A Pure Heart
TTITLE11=We Will Always Be Together
EXTD=YEAR: 2006
EXTT0=
EXTT1=
EXTT2=
EXTT3=
EXTT4=
EXTT5=
EXTT6=
EXTT7=
EXTT8=
EXTT9=
EXTT10=
EXTT11=
PLAYORDER=
